<?xml version="1.0" encoding="UTF-8"?>
<svg xmlns="http://www.w3.org/2000/svg" id="Layer_1" data-name="Layer 1" viewBox="0 0 358.97 71.42">
  <defs>
    <style>.cls-1,.cls-2{fill:#77787b;}.cls-2,.cls-3,.cls-5{fill-rule:evenodd;}.cls-3,.cls-4{fill:#0082c3;}.cls-5{fill:#0070ae;}</style>
  </defs>
  <path class="cls-1" d="M7.86,46.87l4.73,2.22a8.44,8.44,0,0,0-2.05,2.74,9.66,9.66,0,0,0-.89,3.61L0,50.88v-7.7l44.1-22.5L64.89,31.33,61,33.18,57.07,35l-13-6.65Z" transform="translate(0 -0.29)"></path>
  <path class="cls-2" d="M77.55,37.82l-7.82,3.69,10.48,5.37-36,17.06L25.73,55.22a6.92,6.92,0,0,0-1.2-3.4,7,7,0,0,0-5.84-3.08,7,7,0,0,0-4,1.23,7.07,7.07,0,1,0,8,11.68L44.09,71.71,88,51v-7.9Zm-58.94,22h.14a4.11,4.11,0,1,0-.14,0Z" transform="translate(0 -0.29)"></path>
  <path class="cls-3" d="M44.1,8.1l18.5,9.49a7.07,7.07,0,1,0,3.48-6L44.1.29,0,22.8l0,7.68,10.49,5,7.85-4L7.88,26.49Zm29.69,9.56a4.06,4.06,0,1,0-4.05,4.06A4.05,4.05,0,0,0,73.79,17.66Z" transform="translate(0 -0.29)"></path>
  <path class="cls-4" d="M77.9,21.42A9,9,0,0,0,78.71,18L88,22.65v7.9L44.09,51.32l-21-9.91,7.84-4L44.4,43.42,80.21,26.5l-4.39-2.25A7.09,7.09,0,0,0,77.9,21.42Z" transform="translate(0 -0.29)"></path>
  <path class="cls-3" d="M103.8,9.89v26h7V25.37h18.53V20.16H110.82V15.91h19.65v-6Zm39.06,18.4a3,3,0,0,1-.86-2.1v-7a2.66,2.66,0,0,1,.86-2,3,3,0,0,1,2.15-.82h13.15a3.18,3.18,0,0,1,2.21.8,2.57,2.57,0,0,1,.88,2v7a2.86,2.86,0,0,1-.92,2.12,3.08,3.08,0,0,1-2.17.88H145A2.86,2.86,0,0,1,142.86,28.29Zm-1.15-18.4a7,7,0,0,0-5,1.92,6.19,6.19,0,0,0-2,4.69V29.31A6.18,6.18,0,0,0,136.77,34a7,7,0,0,0,4.94,2H161a6.91,6.91,0,0,0,4.95-2A6.35,6.35,0,0,0,168,29.19V16.5a6.18,6.18,0,0,0-2.07-4.67A7,7,0,0,0,161,9.89Zm37.68,6.5H192.1a3.17,3.17,0,0,1,2.21.84,2.65,2.65,0,0,1,.92,2,3.41,3.41,0,0,1-.92,2.39,2.9,2.9,0,0,1-2.21,1H179.39Zm-6.51-6.5V36h7V29.38h13.64c.67,0,1.2.54,1.6,1.61a15.37,15.37,0,0,1,.6,5h7a35.12,35.12,0,0,0-.56-7.48,3.12,3.12,0,0,0-2.85-2.63,13.45,13.45,0,0,0,2.49-2.3,4.13,4.13,0,0,0,.92-2.7v-4.4a6.15,6.15,0,0,0-2.06-4.66,7,7,0,0,0-5-1.94Zm77.19,0-8.22,21.42L236,9.89h-9.42l-5.82,21.54-8.3-21.54h-7.1l10,26h11l4.89-18.17,4.93,18.17h11l10-26Zm20.14,4.88L275.67,26H264.72Zm-5.74-4.88-12.75,26h7.82l2.4-4.93H278l2.4,4.93h7.79l-12.68-26Zm35.2,6.5h12.71a3.17,3.17,0,0,1,2.21.84,2.65,2.65,0,0,1,.92,2,3.41,3.41,0,0,1-.92,2.39,2.9,2.9,0,0,1-2.21,1H299.67Zm-7.32-6.5V36h7V29.38H313c.67,0,1.2.54,1.6,1.61a15.37,15.37,0,0,1,.6,5h7a35.12,35.12,0,0,0-.56-7.48,3.12,3.12,0,0,0-2.85-2.63,13.14,13.14,0,0,0,2.49-2.3,4.13,4.13,0,0,0,.92-2.7v-4.4a6.19,6.19,0,0,0-2.06-4.66,7,7,0,0,0-5-1.94Zm41.45,6.5h15a3.76,3.76,0,0,1,2.43.8,2.48,2.48,0,0,1,1,2v6.88a2.87,2.87,0,0,1-1,2.2,3.67,3.67,0,0,1-2.49.92H333.8Zm-7.31-6.5v26H352a6,6,0,0,0,5-2.82A11.25,11.25,0,0,0,359,26.31v-7a10.87,10.87,0,0,0-2.06-6.63,6.06,6.06,0,0,0-5-2.78Z" transform="translate(0 -0.29)"></path>
  <path class="cls-1" d="M103.8,59.64V43.09h7.64l9,13.37V43.09h4.46V59.64h-7.72l-9-13.32V59.64Z" transform="translate(0 -0.29)"></path>
  <path class="cls-1" d="M153.68,50.35v3.31H141.92v2.88h12.47v3.82H137.46V43.81h16.93v3.81H141.92v2.73Z" transform="translate(0 -0.29)"></path>
  <path class="cls-1" d="M178.5,60.36h-5.07V48.26h-6.9V43.81h18.84v4.45H178.5Z" transform="translate(0 -0.29)"></path>
  <path class="cls-1" d="M203.89,60.36l-6.36-16.55H202L207.3,57.5,211,43.81h6l3.69,13.62,5.22-13.62h4.51l-6.34,16.55h-6.95L214,48.8l-3.1,11.56Z" transform="translate(0 -0.29)"></path>
  <path class="cls-1" d="M242.42,56.15V48a4,4,0,0,1,1.3-3,4.43,4.43,0,0,1,3.16-1.22H259.1a4.35,4.35,0,0,1,3.13,1.24,3.9,3.9,0,0,1,1.33,3v8.07a4.08,4.08,0,0,1-1.33,3,4.36,4.36,0,0,1-3.13,1.25H246.88a4.41,4.41,0,0,1-3.13-1.25A3.91,3.91,0,0,1,242.42,56.15Zm6.37,0h8.35a1.92,1.92,0,0,0,1.38-.56,1.79,1.79,0,0,0,.58-1.35V49.79a1.65,1.65,0,0,0-.56-1.27,2,2,0,0,0-1.4-.51h-8.35a2,2,0,0,0-1.38.53,1.69,1.69,0,0,0-.53,1.25v4.45a2,2,0,0,0,.53,1.35A1.87,1.87,0,0,0,248.79,56.15Z" transform="translate(0 -0.29)"></path>
  <path class="cls-1" d="M280.49,60.36H276V43.81h14.52a4.36,4.36,0,0,1,3.13,1.24A3.89,3.89,0,0,1,295,48v2.8a2.7,2.7,0,0,1-.58,1.73A9.12,9.12,0,0,1,292.84,54a2,2,0,0,1,1.81,1.68,22.31,22.31,0,0,1,.35,4.74h-4.45a9.91,9.91,0,0,0-.38-3.19c-.26-.68-.6-1-1-1h-8.66Zm0-12.35v4h8.07a1.83,1.83,0,0,0,1.4-.63,2.21,2.21,0,0,0,.59-1.53,1.71,1.71,0,0,0-.59-1.3,2,2,0,0,0-1.4-.53Z" transform="translate(0 -0.29)"></path>
  <path class="cls-1" d="M311.94,60.36h-4.46V43.81h4.46v6h2.75l6.44-6h6.55L319,51.88l9.9,8.48H322l-7.13-6.12h-2.93Z" transform="translate(0 -0.29)"></path>
  <path class="cls-1" d="M340.46,55.06l4.46.13a2.37,2.37,0,0,0,.35,1.32,1.11,1.11,0,0,0,.92.54h6.11a2.61,2.61,0,0,0,1.55-.46,1.43,1.43,0,0,0,.67-1.15,1.4,1.4,0,0,0-.46-1,1.58,1.58,0,0,0-1.12-.44l-8-.28a4.62,4.62,0,0,1-3.39-1.09,4,4,0,0,1-1.07-2.9V47.12a2.86,2.86,0,0,1,1.3-2.35,5.16,5.16,0,0,1,3.16-1H355a3.47,3.47,0,0,1,2.47,1,3.13,3.13,0,0,1,1,2.35v1.57H354a1.54,1.54,0,0,0-.44-1.14,1.84,1.84,0,0,0-1.35-.43h-6.11a1.09,1.09,0,0,0-.84.4,1.45,1.45,0,0,0-.35,1,3.48,3.48,0,0,0,.12,1.07c.11.2.38.3.82.3l8.66.31a4.73,4.73,0,0,1,3.23,1c.81.68,1.22,1.91,1.22,3.69,0,2.12-.46,3.56-1.37,4.31a6.52,6.52,0,0,1-4.15,1.12h-8.53a5.23,5.23,0,0,1-3.16-1,2.88,2.88,0,0,1-1.3-2.34Z" transform="translate(0 -0.29)"></path>
  <path class="cls-5" d="M83.85,42.66" transform="translate(0 -0.29)"></path>
</svg>
